# xmcd
#
# Track frame offsets:
#	150
#	20221
#	39966
#	57403
#	76656
#	99416
#	118296
#	137372
#	155628
#	172102
#	188289
#	207406
#	225423
#	241771
#	258524
#	277771
#	294493
#	311654
#
# Disc length: 4403 seconds
#
# Revision: 1
# Processed by: cddbd v1.5.2PL0 Copyright (c) Steve Scherf et al.
# Submitted via: audiograbber 1.83.01
#
DISCID=ee113112
DTITLE=Tina Turner - Simply the Best
DYEAR=1991
DGENRE=Soul
TTITLE0=The Best (Edit)
TTITLE1=Better Be Good To Me
TTITLE2=I Can't Stand The Rain
TTITLE3=What's Love Got To Do With It
TTITLE4=I Don't Wanna Lose You
TTITLE5=Nutbush City Limits (The 90's Version)
TTITLE6=What You Get Is What You See
TTITLE7=Let's Stay Together
TTITLE8=River Deep - Mountain High (Digital Remaster 1991)
TTITLE9=Steamy Windows
TTITLE10=Typical Male
TTITLE11=We Don't Need Another Hero (Thunderdome)
TTITLE12=Private Dancer (Single Edit)
TTITLE13=Look Me In The Heart
TTITLE14=It Takes Two
TTITLE15=I Want You Near Me
TTITLE16=Way Of The World
TTITLE17=Love Thing
EXTD=
EXTT0=
EXTT1=
EXTT2=
EXTT3=
EXTT4=
EXTT5=
EXTT6=
EXTT7=
EXTT8=
EXTT9=
EXTT10=
EXTT11=
EXTT12=
EXTT13=
EXTT14=
EXTT15=
EXTT16=
EXTT17=
PLAYORDER=
